<?xml version="1.0" encoding="UTF-8"?>
<!DOCTYPE svg PUBLIC "-//W3C//DTD SVG 1.1//EN" "http://www.w3.org/Graphics/SVG/1.1/DTD/svg11.dtd">
<svg xmlns="http://www.w3.org/2000/svg" version="1.1"
     width="582px" height="562px"
     viewBox="0 0 582 562">
    <style>
        .bh-shape-gray { fill: none; stroke: rgb(27 27 27); }
        .bh-shape-white { fill: rgb(255 255 255); stroke: rgb(27 27 27); }
        .bh-shape-yellow { fill: rgb(255 170 0); stroke: rgb(27 27 27); }
        .bh-shape-grid { fill: none; stroke: rgb(230 230 230); }
        .bh-shape-guideline { fill: none; stroke: rgb(204 204 204); }
    </style>
    <!-- VERTICAL GRID -->
    <path class="bh-shape-grid"
          d="M 70 540 L 70 20"
          stroke-width="2"/>
    <path class="bh-shape-grid"
          d="M 90 540 L 90 20"
          stroke-width="2"/>
    <path class="bh-shape-grid"
          d="M 110 540 L 110 20"
          stroke-width="2"/>
    <path class="bh-shape-grid"
          d="M 150 540 L 150 20"
          stroke-width="2"/>
    <path class="bh-shape-grid"
          d="M 170 540 L 170 20"
          stroke-width="2"/>
    <path class="bh-shape-grid"
          d="M 190 540 L 190 20"
          stroke-width="2"/>
    <path class="bh-shape-grid"
          d="M 230 540 L 230 20"
          stroke-width="2"/>
    <path class="bh-shape-grid"
          d="M 250 540 L 250 20"
          stroke-width="2"/>
    <path class="bh-shape-grid"
          d="M 270 540 L 270 20"
          stroke-width="2"/>
    <path class="bh-shape-grid"
          d="M 310 540 L 310 20"
          stroke-width="2"/>
    <path class="bh-shape-grid"
          d="M 330 540 L 330 20"
          stroke-width="2"/>
    <path class="bh-shape-grid"
          d="M 350 540 L 350 20"
          stroke-width="2"/>
    <path class="bh-shape-grid"
          d="M 390 540 L 390 20"
          stroke-width="2"/>
    <path class="bh-shape-grid"
          d="M 410 540 L 410 20"
          stroke-width="2"/>
    <path class="bh-shape-grid"
          d="M 430 540 L 430 20"
          stroke-width="2"/>
    <path class="bh-shape-grid"
          d="M 470 540 L 470 20"
          stroke-width="2"/>
    <path class="bh-shape-grid"
          d="M 490 540 L 490 20"
          stroke-width="2"/>
    <path class="bh-shape-grid"
          d="M 510 540 L 510 20"
          stroke-width="2"/>
    <!-- HORIZONTAL GRID -->
    <path class="bh-shape-grid"
          d="M 30 60 L 550 60"
          stroke-width="2"/>
    <path class="bh-shape-grid"
          d="M 30 80 L 550 80"
          stroke-width="2"/>
    <path class="bh-shape-grid"
          d="M 30 100 L 550 100"
          stroke-width="2"/>
    <path class="bh-shape-grid"
          d="M 30 140 L 550 140"
          stroke-width="2"/>
    <path class="bh-shape-grid"
          d="M 30 160 L 550 160"
          stroke-width="2"/>
    <path class="bh-shape-grid"
          d="M 30 180 L 550 180"
          stroke-width="2"/>
    <path class="bh-shape-grid"
          d="M 30 220 L 550 220"
          stroke-width="2"/>
    <path class="bh-shape-grid"
          d="M 30 240 L 550 240"
          stroke-width="2"/>
    <path class="bh-shape-grid"
          d="M 30 260 L 550 260"
          stroke-width="2"/>
    <path class="bh-shape-grid"
          d="M 30 300 L 550 300"
          stroke-width="2"/>
    <path class="bh-shape-grid"
          d="M 30 320 L 550 320"
          stroke-width="2"/>
    <path class="bh-shape-grid"
          d="M 30 340 L 550 340"
          stroke-width="2"/>
    <path class="bh-shape-grid"
          d="M 30 380 L 550 380"
          stroke-width="2"/>
    <path class="bh-shape-grid"
          d="M 30 400 L 550 400"
          stroke-width="2"/>
    <path class="bh-shape-grid"
          d="M 30 420 L 550 420"
          stroke-width="2"/>
    <path class="bh-shape-grid"
          d="M 30 460 L 550 460"
          stroke-width="2"/>
    <path class="bh-shape-grid"
          d="M 30 480 L 550 480"
          stroke-width="2"/>
    <path class="bh-shape-grid"
          d="M 30 500 L 550 500"
          stroke-width="2"/>
    <!-- VERTICAL GUIDELINES -->
    <path class="bh-shape-guideline"
          d="M 50 540 L 50 20"
          stroke-width="2"/>
    <path class="bh-shape-guideline"
          d="M 130 540 L 130 20"
          stroke-width="2"/>
    <path class="bh-shape-guideline"
          d="M 210 540 L 210 20"
          stroke-width="2"/>
    <path class="bh-shape-guideline"
          d="M 290 540 L 290 20"
          stroke-width="2"/>
    <path class="bh-shape-guideline"
          d="M 370 540 L 370 20"
          stroke-width="2"/>
    <path class="bh-shape-guideline"
          d="M 450 540 L 450 20"
          stroke-width="2"/>
    <path class="bh-shape-guideline"
          d="M 530 540 L 530 20"
          stroke-width="2"/>
    <!-- VERTICAL GUIDELINES -->
    <path class="bh-shape-guideline"
          d="M 30 40 L 550 40"
          stroke-width="2"/>
    <path class="bh-shape-guideline"
          d="M 30 120 L 550 120"
          stroke-width="2"/>
    <path class="bh-shape-guideline"
          d="M 30 200 L 550 200"
          stroke-width="2"/>
    <path class="bh-shape-guideline"
          d="M 30 280 L 550 280"
          stroke-width="2"/>
    <path class="bh-shape-guideline"
          d="M 30 360 L 550 360"
          stroke-width="2"/>
    <path class="bh-shape-guideline"
          d="M 30 440 L 550 440"
          stroke-width="2"/>
    <path class="bh-shape-guideline"
          d="M 30 520 L 550 520"
          stroke-width="2"/>
    <rect class="bh-shape-guideline"
          x="30" y="20"
          width="520" height="520"
          stroke-width="2"/>
    <!-- ANTENNAS -->
    <path class="bh-shape-gray"
          d="M 110 120 C 110 75.82 145.82 40 190 40"
          stroke-width="20"
          transform="translate(190,0)scale(-1,1)translate(-190,0)"/>
    <path class="bh-shape-gray"
          d="M 310 120 C 310 75.82 345.82 40 390 40"
          stroke-width="20"/>
    <!-- BODY -->
    <path class="bh-shape-yellow"
          d="M 200 455 L 200 442.5 Q 200 430 220 430 L 360 430 Q 380 430 380 450 L 380 465 Q 380 480 361.72 488.12 L 308.28 511.88 Q 290 520 271.72 511.88 L 218.28 488.12 Q 200 480 200 467.5 Z"
          stroke-width="20"/>
    <rect class="bh-shape-white"
          x="200" y="400"
          width="180" height="60"
          stroke-width="20"/>
    <rect class="bh-shape-yellow"
          x="200" y="340"
          width="180" height="60"
          stroke-width="20"/>
    <rect class="bh-shape-white"
          x="200" y="280"
          width="180" height="60"
          stroke-width="20"/>
    <rect class="bh-shape-yellow"
          x="200" y="220"
          width="180" height="60"
          stroke-width="20"/>
    <path class="bh-shape-yellow"
          d="M 220 70 Q 360 70 360 160 Q 360 250 220 250 Q 290 160 220 70 Z"
          stroke-width="20"
          transform="rotate(-90,290,160)"/>
    <!-- WINGS -->
    <path class="bh-shape-white"
          d="M 175 160 L 251.5 317.95 C 257.09 329.5 260 342.17 260 355 C 260 377.54 251.04 399.16 235.1 415.1 C 219.16 431.04 197.54 440 175 440 C 152.46 440 130.84 431.04 114.9 415.1 C 98.96 399.16 90 377.54 90 355 C 90 342.17 92.91 329.5 98.5 317.95 Z"
          stroke-width="20"
          transform="rotate(50,175,300)"/>
    <path class="bh-shape-white"
          d="M 405 160 L 481.5 317.95 C 487.09 329.5 490 342.17 490 355 C 490 377.54 481.04 399.16 465.1 415.1 C 449.16 431.04 427.54 440 405 440 C 382.46 440 360.84 431.04 344.9 415.1 C 328.96 399.16 320 377.54 320 355 C 320 342.17 322.91 329.5 328.5 317.95 Z"
          stroke-width="20"
          transform="rotate(-50,405,300)"/>
</svg>