<?xml version="1.0" encoding="UTF-8"?>
<!DOCTYPE svg PUBLIC "-//W3C//DTD SVG 1.1//EN" "http://www.w3.org/Graphics/SVG/1.1/DTD/svg11.dtd">
<svg xmlns="http://www.w3.org/2000/svg" version="1.1"
     width="582px" height="562px"
     viewBox="0 0 582 562">
    <style>
        .bh-shape-gray { fill: none; stroke: rgb(27 27 27); }
        .bh-shape-white { fill: rgb(255 255 255); stroke: rgb(27 27 27); }
        .bh-shape-yellow { fill: rgb(255 170 0); stroke: rgb(27 27 27); }
    </style>
    <!-- GRID -->
    <!-- GUIDELINES -->
    <!-- ANTENNAS -->
    <path class="bh-shape-gray"
          d="M 110 120 C 110 75.82 145.82 40 190 40"
          stroke-width="20"
          transform="translate(190,0)scale(-1,1)translate(-190,0)"/>
    <path class="bh-shape-gray"
          d="M 310 120 C 310 75.82 345.82 40 390 40"
          stroke-width="20"/>
    <!-- BODY -->
    <path class="bh-shape-yellow"
          d="M 200 455 L 200 442.5 Q 200 430 220 430 L 360 430 Q 380 430 380 450 L 380 465 Q 380 480 361.72 488.12 L 308.28 511.88 Q 290 520 271.72 511.88 L 218.28 488.12 Q 200 480 200 467.5 Z"
          stroke-width="20"/>
    <rect class="bh-shape-white"
          x="200" y="400"
          width="180" height="60"
          stroke-width="20"/>
    <rect class="bh-shape-yellow"
          x="200" y="340"
          width="180" height="60"
          stroke-width="20"/>
    <rect class="bh-shape-white"
          x="200" y="280"
          width="180" height="60"
          stroke-width="20"/>
    <rect class="bh-shape-yellow"
          x="200" y="220"
          width="180" height="60"
          stroke-width="20"/>
    <path class="bh-shape-yellow"
          d="M 220 70 Q 360 70 360 160 Q 360 250 220 250 Q 290 160 220 70 Z"
          stroke-width="20"
          transform="rotate(-90,290,160)"/>
    <!-- WINGS -->
    <path class="bh-shape-white"
          d="M 175 160 L 251.5 317.95 C 257.09 329.5 260 342.17 260 355 C 260 377.54 251.04 399.16 235.1 415.1 C 219.16 431.04 197.54 440 175 440 C 152.46 440 130.84 431.04 114.9 415.1 C 98.96 399.16 90 377.54 90 355 C 90 342.17 92.91 329.5 98.5 317.95 Z"
          stroke-width="20"
          transform="rotate(50,175,300)"/>
    <path class="bh-shape-white"
          d="M 405 160 L 481.5 317.95 C 487.09 329.5 490 342.17 490 355 C 490 377.54 481.04 399.16 465.1 415.1 C 449.16 431.04 427.54 440 405 440 C 382.46 440 360.84 431.04 344.9 415.1 C 328.96 399.16 320 377.54 320 355 C 320 342.17 322.91 329.5 328.5 317.95 Z"
          stroke-width="20"
          transform="rotate(-50,405,300)"/>
</svg>