<?xml version="1.0" encoding="UTF-8"?>
<!DOCTYPE svg PUBLIC "-//W3C//DTD SVG 1.1//EN" "http://www.w3.org/Graphics/SVG/1.1/DTD/svg11.dtd">
<svg xmlns="http://www.w3.org/2000/svg" version="1.1"
     width="580px" height="587px"
     viewBox="0 0 580 587">
    <style>
        .bh-shape-gray { fill: none; stroke: rgb(27 27 27); }
        .bh-shape-white { fill: rgb(255 255 255); stroke: rgb(27 27 27); }
        .bh-shape-yellow { fill: rgb(255 170 0); stroke: rgb(27 27 27); }
    </style>
    <!-- ANTENNAS -->
    <path class="bh-shape-gray"
          d="M 197.12 118 C 197.12 73.82 232.93 38 277.12 38"
          stroke-width="20"
          transform="translate(277.12,0)scale(-1,1)translate(-277.12,0)rotate(-25,277.12,118)"/>
    <path class="bh-shape-gray"
          d="M 379.12 202 C 379.12 157.82 414.93 122 459.12 122"
          stroke-width="20"
          transform="rotate(25,459.12,202)"/>
    <!-- BODY -->
    <path class="bh-shape-yellow"
          d="M 129.12 461 L 129.12 448.5 Q 129.12 436 149.12 436 L 289.12 436 Q 309.12 436 309.12 456 L 309.12 471 Q 309.12 486 290.84 494.12 L 237.39 517.88 Q 219.12 526 200.84 517.88 L 147.39 494.12 Q 129.12 486 129.12 473.5 Z"
          stroke-width="20"
          transform="rotate(25,219.12,481)"/>
    <rect class="bh-shape-white"
          x="147.12" y="410"
          width="180" height="60"
          stroke-width="20"
          transform="rotate(25,237.12,440)"/>
    <rect class="bh-shape-yellow"
          x="171.12" y="356"
          width="180" height="60"
          stroke-width="20"
          transform="rotate(25,261.12,386)"/>
    <rect class="bh-shape-white"
          x="197.12" y="302"
          width="180" height="60"
          stroke-width="20"
          transform="rotate(25,287.12,332)"/>
    <rect class="bh-shape-yellow"
          x="223.12" y="246"
          width="180" height="60"
          stroke-width="20"
          transform="rotate(25,313.12,276)"/>
    <path class="bh-shape-yellow"
          d="M 279.12 106 Q 419.12 106 419.12 196 Q 419.12 286 279.12 286 Q 349.12 196 279.12 106 Z"
          stroke-width="20"
          transform="rotate(-65,349.12,196)"/>
    <!-- WINGS -->
    <path class="bh-shape-white"
          d="M 186.12 134 L 262.62 291.95 C 268.21 303.5 271.12 316.17 271.12 329 C 271.12 351.54 262.16 373.16 246.22 389.1 C 230.28 405.04 208.66 414 186.12 414 C 163.57 414 141.95 405.04 126.01 389.1 C 110.07 373.16 101.12 351.54 101.12 329 C 101.12 316.17 104.02 303.5 109.62 291.95 Z"
          stroke-width="20"
          transform="rotate(75,186.12,274)"/>
    <path class="bh-shape-white"
          d="M 396.12 230 L 472.62 387.95 C 478.21 399.5 481.12 412.17 481.12 425 C 481.12 447.54 472.16 469.16 456.22 485.1 C 440.28 501.04 418.66 510 396.12 510 C 373.57 510 351.95 501.04 336.01 485.1 C 320.07 469.16 311.12 447.54 311.12 425 C 311.12 412.17 314.02 399.5 319.62 387.95 Z"
          stroke-width="20"
          transform="rotate(-25,396.12,370)"/>
</svg>