<?xml version="1.0" encoding="UTF-8"?>
<!DOCTYPE svg PUBLIC "-//W3C//DTD SVG 1.1//EN" "http://www.w3.org/Graphics/SVG/1.1/DTD/svg11.dtd">
<svg xmlns="http://www.w3.org/2000/svg" version="1.1" width="1080px"
     height="1100px" viewBox="0 0 1080 1100">
    <style>
        .custom-logo-fill {}
        .custom-icon-fill { fill: rgb(158 158 158); stroke: rgb(158 158 158); }
        .custom-line-fill { fill: none; stroke: rgb(158 158 158); }
        .custom-box-fill { fill: rgb(255 170 0); stroke: none; }
        .custom-box-text { fill: rgb(255 255 255); stroke: none; }
    </style>
    <g data-cell-id="qB10DjFmxlm1vyEIDRBq-0">

        <g data-cell-id="qB10DjFmxlm1vyEIDRBq-1">
            <g>
                <path d="M 508.09 485.37 L 525.66 458.26 Q 527.29 455.74 530.29 455.74 L 589.71 455.74 Q 592.71 455.74 594.34 458.26 L 629.48 512.48 Q 631.11 515 629.48 517.52 L 594.34 571.74 Q 592.71 574.26 589.71 574.26 L 530.29 574.26 Q 527.29 574.26 525.66 571.74 L 490.52 517.52 Q 488.89 515 490.52 512.48 Z"
                      fill="none" stroke="#efba0b" stroke-width="15" stroke-miterlimit="10"
                      transform="rotate(-180,560,515)" pointer-events="all"/>
            </g>
        </g>
        <g data-cell-id="qB10DjFmxlm1vyEIDRBq-2">
            <g>
                <path d="M 533.23 485.83 Q 533.23 485.83 586.77 486.44" fill="none" stroke="#efba0b"
                      stroke-width="15" stroke-miterlimit="10" pointer-events="stroke"/>
            </g>
        </g>
        <g data-cell-id="qB10DjFmxlm1vyEIDRBq-3">
            <g>
                <path d="M 533.23 543.87 Q 533.23 543.87 586.77 544.47" fill="none" stroke="#efba0b"
                      stroke-width="15" stroke-miterlimit="10" pointer-events="stroke"/>
            </g>
        </g>
        <g data-cell-id="qB10DjFmxlm1vyEIDRBq-4">
            <g>
                <path d="M 515.56 514.69 Q 515.56 514.69 604.44 515" fill="none" stroke="#efba0b"
                      stroke-width="15" stroke-miterlimit="10" pointer-events="stroke"/>
            </g>
        </g>
    </g>

    <!-- ICONS -->
    <g>
        <text class="custom-icon-fill" x="200" y="208" fill="#B3B3B3" font-family="boxicons"
              font-size="160px" text-anchor="middle">
        </text>
    </g>
    <g>
        <text class="custom-icon-fill" x="200" y="568" fill="#B3B3B3" font-family="boxicons"
              font-size="160px" text-anchor="middle">
        </text>
    </g>
    <g>
        <text class="custom-icon-fill" x="200" y="928" fill="#B3B3B3" font-family="boxicons"
              font-size="160px" text-anchor="middle">
        </text>
    </g>
    <g>
        <text class="custom-icon-fill" x="919" y="568" fill="#B3B3B3" font-family="boxicons"
              font-size="160px" text-anchor="middle">
        </text>
    </g>
    <!-- LINES -->
    <g>
        <path class="custom-line-fill"
              d="M 304 160 L 370 160 Q 380 160 380 170 L 380 470 Q 380 480 390 480 L 444.66 480"
              stroke-width="5" stroke-miterlimit="10"
              stroke-dasharray="15 15" pointer-events="stroke"/>
        <ellipse class="custom-line-fill" cx="300" cy="160" rx="4" ry="4" stroke-width="5"
                 pointer-events="all"/>
        <path class="custom-line-fill" d="M 454.41 480 L 441.41 486.5 L 444.66 480 L 441.41 473.5 Z"
              stroke-width="5" stroke-miterlimit="10" pointer-events="all"/>
    </g>
    <g>
        <path class="custom-line-fill"
              d="M 304 880 L 370 880 Q 380 880 380 870 L 380 570 Q 380 560 390 560 L 444.66 560"
              stroke-width="5" stroke-miterlimit="10"
              stroke-dasharray="15 15" pointer-events="stroke"/>
        <ellipse class="custom-line-fill" cx="300" cy="880" rx="4" ry="4" fill="none" stroke="#b3b3b3" stroke-width="5"
                 pointer-events="all"/>
        <path class="custom-line-fill" d="M 454.41 560 L 441.41 566.5 L 444.66 560 L 441.41 553.5 Z"
              stroke-width="5" stroke-miterlimit="10" pointer-events="all"/>
    </g>
    <g>
        <path class="custom-line-fill" d="M 304 520 L 370 520 Q 380 520 390 520 L 444.66 520"
              stroke-width="5" stroke-miterlimit="10" stroke-dasharray="15 15" pointer-events="stroke"/>
        <ellipse class="custom-line-fill" cx="300" cy="520" rx="4" ry="4" stroke-width="5"
                 pointer-events="all"/>
        <path class="custom-line-fill" d="M 454.41 520 L 441.41 526.5 L 444.66 520 L 441.41 513.5 Z"
              stroke-width="5" stroke-miterlimit="10" pointer-events="all"/>
    </g>
    <g>
        <path class="custom-line-fill" d="M 664 520 L 730 520 Q 740 520 750 520 L 804.66 520"
              stroke-width="5" stroke-miterlimit="10" stroke-dasharray="15 15" pointer-events="stroke"/>
        <ellipse class="custom-line-fill" cx="660" cy="520" rx="4" ry="4" stroke-width="5"
                 pointer-events="all"/>
        <path class="custom-line-fill" d="M 814.41 520 L 801.41 526.5 L 804.66 520 L 801.41 513.5 Z"
              stroke-width="5" stroke-miterlimit="10" pointer-events="all"/>
    </g>
    <!-- BOXES -->
    <g>
        <rect class="custom-box-fill" x="100" y="240" width="200" height="60" rx="9" ry="9"
              pointer-events="all"/>
        <text class="custom-box-text" x="200" y="277" fill="#FFFFFF" font-family="Helvetica"
              font-size="24px" text-anchor="middle">Cercanía
        </text>
    </g>
    <g>
        <rect class="custom-box-fill" x="100" y="600" width="200" height="60" rx="9" ry="9"
              pointer-events="all"/>
        <text class="custom-box-text" x="200" y="637" fill="#FFFFFF" font-family="Helvetica"
              font-size="24px" text-anchor="middle">Metodología
        </text>
    </g>
    <g>
        <rect class="custom-box-fill" x="100" y="960" width="200" height="60" rx="9" ry="9"
              pointer-events="all"/>
        <text class="custom-box-text" x="200" y="997" fill="#FFFFFF" font-family="Helvetica"
              font-size="24px" text-anchor="middle">Tecnología
        </text>
    </g>
    <g>
        <rect class="custom-box-fill" x="460" y="600" width="200" height="60" rx="9" ry="9"
              pointer-events="all"/>
        <text class="custom-box-text" x="560" y="637" fill="#FFFFFF" font-family="Helvetica"
              font-size="24px" text-anchor="middle">BeeHappy
        </text>
    </g>
    <g>
        <rect class="custom-box-fill" x="819.73" y="600" width="200" height="60" rx="9" ry="9"
              pointer-events="all"/>
        <text class="custom-box-text" x="920" y="637" fill="#FFFFFF" font-family="Helvetica"
              font-size="24px" text-anchor="middle">Clientes
        </text>
    </g>

</svg>