<?xml version="1.0" encoding="UTF-8"?>
<!DOCTYPE svg PUBLIC "-//W3C//DTD SVG 1.1//EN" "http://www.w3.org/Graphics/SVG/1.1/DTD/svg11.dtd">
<svg xmlns="http://www.w3.org/2000/svg" version="1.1" width="1080px" height="1000px" viewBox="0 0 1080 1000">
    <style>
        .custom-yellow-text { fill: rgb(255 170 0); stroke: none; }
        .custom-white-text { fill: rgb(255 255 255); stroke: none; }
        .custom-gray-text { fill: rgb(158 158 158); stroke: none; }
        .custom-gray-line { fill: none; stroke: rgb(158 158 158); }
        .custom-yellow-box { fill: none; stroke: rgb(255 170 0); }
        .custom-yellow-fill { fill: none; stroke: rgb(255 170 0); }
        .custom-white-fill { fill: none; stroke: rgb(255 255 255); }
    </style>
    <!-- VERTICAL NUMBERS -->
    <g>
        <text class="custom-gray-text" x="100" y="807" font-family="Helvetica"
              font-size="24px" text-anchor="middle">10
        </text>
    </g>
    <g>
        <text class="custom-gray-text" x="100" y="687" font-family="Helvetica"
              font-size="24px" text-anchor="middle">15
        </text>
    </g>
    <g>
        <text class="custom-gray-text" x="100" y="567" font-family="Helvetica"
              font-size="24px" text-anchor="middle">20
        </text>
    </g>
    <g>
        <text class="custom-gray-text" x="100" y="447" font-family="Helvetica"
              font-size="24px" text-anchor="middle">25
        </text>
    </g>
    <g>
        <text class="custom-gray-text" x="100" y="327" font-family="Helvetica"
              font-size="24px" text-anchor="middle">30
        </text>
    </g>
    <g>
        <text class="custom-gray-text" x="100" y="207" font-family="Helvetica"
              font-size="24px" text-anchor="middle">35
        </text>
    </g>
    <!-- HORIZONTAL NUMBERS -->
    <g>
        <text class="custom-gray-text" x="200" y="907" font-family="Helvetica"
              font-size="24px" text-anchor="middle">1
        </text>
    </g>
    <g>
        <text class="custom-gray-text" x="320" y="907" font-family="Helvetica"
              font-size="24px" text-anchor="middle">2
        </text>
    </g>
    <g>
        <text class="custom-gray-text" x="440" y="907" font-family="Helvetica"
              font-size="24px" text-anchor="middle">3
        </text>
    </g>
    <g>
        <text class="custom-gray-text" x="560" y="907" font-family="Helvetica"
              font-size="24px" text-anchor="middle">4
        </text>
    </g>
    <g>
        <text class="custom-gray-text" x="680" y="907" font-family="Helvetica"
              font-size="24px" text-anchor="middle">5
        </text>
    </g>
    <g>
        <text class="custom-gray-text" x="800" y="907" font-family="Helvetica"
              font-size="24px" text-anchor="middle">6
        </text>
    </g>
    <g>
        <text class="custom-gray-text" x="920" y="907" font-family="Helvetica"
              font-size="24px" text-anchor="middle">7
        </text>
    </g>
    <!-- LINES -->
    <g>
        <path class="custom-gray-line" d="M 120 920 Q 120 920 120 135.34" stroke-width="5"
              stroke-miterlimit="10" pointer-events="stroke"/>
        <path class="custom-gray-line" d="M 120 125.59 L 126.5 138.59 L 120 135.34 L 113.5 138.59 Z" fill="#b3b3b3"
              stroke-width="5" stroke-miterlimit="10" pointer-events="all"/>
    </g>
    <g>
        <path class="custom-gray-line" d="M 80 880 Q 80 880 984.66 880" fill="none" stroke-width="5"
              stroke-miterlimit="10" pointer-events="stroke"/>
        <path class="custom-gray-line" d="M 994.41 880 L 981.41 886.5 L 984.66 880 L 981.41 873.5 Z" fill="#b3b3b3"
              stroke-width="5" stroke-miterlimit="10" pointer-events="all"/>
    </g>
    <!-- BOXES -->
    <g>
        <path class="custom-yellow-box" d="M 170 790 L 230 790 L 230 860 L 170 860 L 170 790"
              stroke-miterlimit="10" pointer-events="all"/>
    </g>
    <g>
        <path class="custom-yellow-box" d="M 290 760 L 350 760 L 350 860 L 290 860 L 290 760"
              stroke-miterlimit="10" pointer-events="all"/>
    </g>
    <g>
        <path class="custom-yellow-box" d="M 410 710 L 470 710 L 470 860 L 410 860 L 410 710"
              stroke-miterlimit="10" pointer-events="all"/>
    </g>
    <g>
        <path class="custom-yellow-box" d="M 530 640 L 590 640 L 590 860 L 530 860 L 530 640"
              stroke-miterlimit="10" pointer-events="all"/>
    </g>
    <g>
        <path class="custom-yellow-box" d="M 650 550 L 710 550 L 710 860 L 650 860 L 650 550"
              stroke-miterlimit="10" pointer-events="all"/>
    </g>
    <g>
        <path class="custom-yellow-box" d="M 770 420 L 830 420 L 830 860 L 770 860 L 770 420"
              stroke-miterlimit="10" pointer-events="all"/>
    </g>
    <g>
        <path class="custom-yellow-box" d="M 890 270 L 950 270 L 950 860 L 890 860 L 890 270"
              stroke-miterlimit="10" pointer-events="all"/>
    </g>
    <!-- TITlE -->
    <g>
        <text class="custom-yellow-text" x="300" y="118" font-family="boxicons" font-size="60px" text-anchor="middle">
            
        </text>
    </g>
    <g>
        <text class="custom-yellow-text" x="362" y="107" font-family="Helvetica" font-size="24px">Satisfacción...</text>
    </g>
    <g>
        <text class="custom-white-text" x="580" y="118" font-family="boxicons" font-size="60px" text-anchor="middle">
        </text>
    </g>
    <g>
        <text class="custom-white-text" x="642" y="107" font-family="Helvetica" font-size="24px">Costos...</text>
    </g>
    <!-- CURVES -->
    <g>
        <path class="custom-yellow-fill" d="M 160 800 Q 640 720 944.71 224.85" stroke-width="10"
              stroke-miterlimit="10" pointer-events="stroke"/>
        <path class="custom-yellow-fill" d="M 954.14 209.52 L 949.82 228 L 939.6 221.71 Z"
              stroke-width="10" stroke-miterlimit="10" pointer-events="all"/>
    </g>
    <g>
        <path class="custom-white-fill" d="M 160 320 Q 510 670 931.39 754.28" fill="none" stroke="#ffffff"
              stroke-width="10"
              stroke-miterlimit="10" pointer-events="stroke"/>
        <path class="custom-white-fill" d="M 949.04 757.81 L 930.21 760.16 L 932.56 748.39 Z"
              stroke-width="10" stroke-miterlimit="10" pointer-events="all"/>
    </g>
</svg>