<?xml version="1.0" encoding="UTF-8"?>
<!DOCTYPE svg PUBLIC "-//W3C//DTD SVG 1.1//EN" "http://www.w3.org/Graphics/SVG/1.1/DTD/svg11.dtd">
<svg xmlns="http://www.w3.org/2000/svg" version="1.1" width="1080px"
     height="780px" viewBox="0 0 1080 780">
    <style>
        .custom-logo-fill {}
        .custom-icon-fill { fill: rgb(158 158 158); stroke: rgb(158 158 158); }
        .custom-line-fill { fill: none; stroke: rgb(158 158 158); }
        .custom-box-fill { fill: rgb(255 170 0); stroke: none; }
        .custom-box-text { fill: rgb(255 255 255); stroke: none; }
    </style>
    <g data-cell-id="dPuO1QD4Ml7IeejNWTxz-4">
        <g/>
        <g data-cell-id="dPuO1QD4Ml7IeejNWTxz-5">
            <g>
                <path d="M 488.09 325.37 L 505.66 298.26 Q 507.29 295.74 510.29 295.74 L 569.71 295.74 Q 572.71 295.74 574.34 298.26 L 609.48 352.48 Q 611.11 355 609.48 357.52 L 574.34 411.74 Q 572.71 414.26 569.71 414.26 L 510.29 414.26 Q 507.29 414.26 505.66 411.74 L 470.52 357.52 Q 468.89 355 470.52 352.48 Z"
                      fill="none" stroke="#efba0b" stroke-width="15" stroke-miterlimit="10"
                      transform="rotate(-180,540,355)" pointer-events="all"/>
            </g>
        </g>
        <g data-cell-id="dPuO1QD4Ml7IeejNWTxz-6">
            <g>
                <path d="M 513.23 325.83 Q 513.23 325.83 566.77 326.44" fill="none" stroke="#efba0b"
                      stroke-width="15" stroke-miterlimit="10" pointer-events="stroke"/>
            </g>
        </g>
        <g data-cell-id="dPuO1QD4Ml7IeejNWTxz-7">
            <g>
                <path d="M 513.23 383.87 Q 513.23 383.87 566.77 384.47" fill="none" stroke="#efba0b"
                      stroke-width="15" stroke-miterlimit="10" pointer-events="stroke"/>
            </g>
        </g>
        <g data-cell-id="dPuO1QD4Ml7IeejNWTxz-8">
            <g>
                <path d="M 495.56 354.69 Q 495.56 354.69 584.44 355" fill="none" stroke="#efba0b"
                      stroke-width="15" stroke-miterlimit="10" pointer-events="stroke"/>
            </g>
        </g>
        <g data-cell-id="dPuO1QD4Ml7IeejNWTxz-9">
            <g>
                <rect x="460" y="280" width="160" height="150" fill="none" stroke="none"
                      pointer-events="all"/>
            </g>
        </g>
    </g>
    <!-- ICONS -->
    <g>
        <text class="custom-icon-fill" x="180" y="208" font-family="boxicons" font-size="160px" text-anchor="middle">
        </text>
    </g>
    <g>
        <text class="custom-icon-fill" x="180" y="608" font-family="boxicons" font-size="160px" text-anchor="middle">
        </text>
    </g>
    <g>
        <text class="custom-icon-fill" x="900" y="208" font-family="boxicons" font-size="160px" text-anchor="middle">
        </text>
    </g>
    <g>
        <text class="custom-icon-fill" x="900" y="608" font-family="boxicons" font-size="160px" text-anchor="middle">
        </text>
    </g>
    <!-- LINES -->
    <g>
        <path class="custom-line-fill"
              d="M 284 160 L 350 160 Q 360 160 360 170 L 360 310 Q 360 320 370 320 L 424.66 320"
              stroke-width="5" stroke-miterlimit="10"
              stroke-dasharray="15 15" pointer-events="stroke"/>
        <ellipse class="custom-line-fill" cx="280" cy="160" rx="4" ry="4" stroke-width="5"
                 pointer-events="all"/>
        <path class="custom-line-fill" d="M 434.41 320 L 421.41 326.5 L 424.66 320 L 421.41 313.5 Z"
              stroke-width="5" stroke-miterlimit="10" pointer-events="all"/>
    </g>
    <g>
        <path class="custom-line-fill"
              d="M 284 560 L 350 560 Q 360 560 360 550 L 360 410 Q 360 400 370 400 L 424.66 400"
              stroke-width="5" stroke-miterlimit="10"
              stroke-dasharray="15 15" pointer-events="stroke"/>
        <ellipse class="custom-line-fill" cx="280" cy="560" rx="4" ry="4" stroke-width="5"
                 pointer-events="all"/>
        <path class="custom-line-fill" d="M 434.41 400 L 421.41 406.5 L 424.66 400 L 421.41 393.5 Z"
              stroke-width="5" stroke-miterlimit="10" pointer-events="all"/>
    </g>
    <g>
        <path class="custom-line-fill" d="M 796 160 L 730 160 Q 720 160 720 170 L 720 310 Q 720 320 710 320 L 655.34 320"
              stroke-width="5" stroke-miterlimit="10"
              stroke-dasharray="15 15" pointer-events="stroke"/>
        <ellipse class="custom-line-fill" cx="800" cy="160" rx="4" ry="4" stroke-width="5"
                 pointer-events="all"/>
        <path class="custom-line-fill" d="M 645.59 320 L 658.59 313.5 L 655.34 320 L 658.59 326.5 Z" fill="#b3b3b3"
              stroke-width="5" stroke-miterlimit="10" pointer-events="all"/>
    </g>
    <g>
        <path class="custom-line-fill" d="M 796 560 L 730 560 Q 720 560 720 550 L 720 410 Q 720 400 710 400 L 655.34 400"
              stroke-width="5" stroke-miterlimit="10"
              stroke-dasharray="15 15" pointer-events="stroke"/>
        <ellipse class="custom-line-fill" cx="800" cy="560" rx="4" ry="4" stroke-width="5"
                 pointer-events="all"/>
        <path class="custom-line-fill" d="M 645.59 400 L 658.59 393.5 L 655.34 400 L 658.59 406.5 Z"
              stroke-width="5" stroke-miterlimit="10" pointer-events="all"/>
    </g>
    <!-- BOXES -->
    <g>
        <rect class="custom-box-fill" x="80" y="240" width="200" height="60" rx="9" ry="9"
              pointer-events="all"/>
        <text class="custom-box-text" x="180" y="277" font-family="Helvetica"
              font-size="24px" text-anchor="middle">Bases de...
        </text>
    </g>
    <g>
        <rect class="custom-box-fill" x="80" y="640" width="200" height="60" rx="9" ry="9"
              pointer-events="all"/>
        <text class="custom-box-text" x="180" y="677" font-family="Helvetica"
              font-size="24px" text-anchor="middle">Bases de...
        </text>
    </g>
    <g>
        <rect class="custom-box-fill" x="440" y="440" width="200" height="60" rx="9" ry="9"
              pointer-events="all"/>
        <text class="custom-box-text" x="540" y="477" font-family="Helvetica"
              font-size="24px" text-anchor="middle">BeeHappy
        </text>
    </g>
    <g>
        <rect class="custom-box-fill" x="800" y="240" width="200" height="60" rx="9" ry="9"
              pointer-events="all"/>
        <text class="custom-box-text" x="900" y="277" font-family="Helvetica"
              font-size="24px" text-anchor="middle">Sitios Web
        </text>
    </g>
    <g>
        <rect class="custom-box-fill" x="800" y="640" width="200" height="60" rx="9" ry="9"
              pointer-events="all"/>
        <text class="custom-box-text" x="900" y="677" font-family="Helvetica"
              font-size="24px" text-anchor="middle">Aplicaciones
        </text>
    </g>
</svg>