<?xml version="1.0" encoding="UTF-8"?>
<!DOCTYPE svg PUBLIC "-//W3C//DTD SVG 1.1//EN" "http://www.w3.org/Graphics/SVG/1.1/DTD/svg11.dtd">
<svg xmlns="http://www.w3.org/2000/svg" version="1.1" width="1080px" height="980px" viewBox="0 0 1080 980">
    <style>
        .custom-logo-fill {}
        .custom-icon-fill { fill: rgb(158 158 158); stroke: rgb(158 158 158); }
        .custom-line-fill { fill: none; stroke: rgb(158 158 158); }
        .custom-box-fill { fill: rgb(255 170 0); stroke: none; }
        .custom-box-text { fill: rgb(255 255 255); stroke: none; }
    </style>
    <g>
        <g>
            <path d="M 488.09 525.37 L 505.66 498.26 Q 507.29 495.74 510.29 495.74 L 569.71 495.74 Q 572.71 495.74 574.34 498.26 L 609.48 552.48 Q 611.11 555 609.48 557.52 L 574.34 611.74 Q 572.71 614.26 569.71 614.26 L 510.29 614.26 Q 507.29 614.26 505.66 611.74 L 470.52 557.52 Q 468.89 555 470.52 552.48 Z"
                  fill="none" stroke="#efba0b" stroke-width="15" stroke-miterlimit="10"
                  transform="rotate(-180,540,555)" pointer-events="all"/>
        </g>
        <g>
            <path d="M 513.23 525.83 Q 513.23 525.83 566.77 526.44" fill="none" stroke="#efba0b"
                  stroke-width="15" stroke-miterlimit="10" pointer-events="stroke"/>
        </g>
        <g>
            <path d="M 513.23 583.87 Q 513.23 583.87 566.77 584.47" fill="none" stroke="#efba0b"
                  stroke-width="15" stroke-miterlimit="10" pointer-events="stroke"/>
        </g>
        <g>
            <path d="M 495.56 554.69 Q 495.56 554.69 584.44 555" fill="none" stroke="#efba0b"
                  stroke-width="15" stroke-miterlimit="10" pointer-events="stroke"/>
        </g>
        <g>
            <rect x="460" y="480" width="160" height="150" fill="none" stroke="none"
                  pointer-events="all"/>
        </g>
    </g>
    <!-- ICONS -->
    <g>
        <text class="custom-icon-fill" x="180" y="208" font-family="Boxicons" font-size="160px" text-anchor="middle">
        </text>
    </g>
    <g>
        <text class="custom-icon-fill" x="180" y="608" font-family="Boxicons" font-size="160px" text-anchor="middle">
        </text>
    </g>
    <g>
        <text class="custom-icon-fill" x="900" y="408" font-family="Boxicons" font-size="160px" text-anchor="middle">
        </text>
    </g>
    <g>
        <text class="custom-icon-fill" x="900" y="808" font-family="Boxicons" font-size="160px" text-anchor="middle">
        </text>
    </g>
    <!-- LINES -->
    <g>
        <path class="custom-line-fill" d="M 179.39 335.34 Q 179.39 335.34 179.39 464.66"
              stroke-width="5" stroke-miterlimit="10" stroke-dasharray="15 15" pointer-events="stroke"/>
        <path class="custom-line-fill" d="M 179.39 325.59 L 185.89 338.59 L 179.39 335.34 L 172.89 338.59 Z"
              stroke-width="5" stroke-miterlimit="10" pointer-events="all"/>
        <path class="custom-line-fill" d="M 179.39 474.41 L 172.89 461.41 L 179.39 464.66 L 185.89 461.41 Z"
              stroke-width="5" stroke-miterlimit="10" pointer-events="all"/>
    </g>
    <g>
        <path class="custom-line-fill" d="M 295.34 559.7 Q 295.34 559.7 424.66 559.7" fill="none"
              stroke-width="5" stroke-miterlimit="10" stroke-dasharray="15 15" pointer-events="stroke"/>
        <path class="custom-line-fill" d="M 285.59 559.7 L 298.59 553.2 L 295.34 559.7 L 298.59 566.2 Z"
              stroke-width="5" stroke-miterlimit="10" pointer-events="all"/>
        <path class="custom-line-fill" d="M 434.41 559.7 L 421.41 566.2 L 424.66 559.7 L 421.41 553.2 Z"
              stroke-width="5" stroke-miterlimit="10" pointer-events="all"/>
    </g>
    <g>
        <path class="custom-line-fill"
              d="M 796 360 L 730 360 Q 720 360 720 370 L 720 510 Q 720 520 710 520 L 655.34 520"
              stroke-width="5" stroke-miterlimit="10"
              stroke-dasharray="15 15" pointer-events="stroke"/>
        <ellipse class="custom-line-fill" cx="800" cy="360" rx="4" ry="4" stroke-width="5"
                 pointer-events="all"/>
        <path class="custom-line-fill" d="M 645.59 520 L 658.59 513.5 L 655.34 520 L 658.59 526.5 Z"
              stroke-width="5" stroke-miterlimit="10" pointer-events="all"/>
    </g>
    <g>
        <path class="custom-line-fill"
              d="M 796 760 L 730 760 Q 720 760 720 750 L 720 610 Q 720 600 710 600 L 655.34 600"
              stroke-width="5" stroke-miterlimit="10"
              stroke-dasharray="15 15" pointer-events="stroke"/>
        <ellipse class="custom-line-fill" cx="800" cy="760" rx="4" ry="4" stroke-width="5"
                 pointer-events="all"/>
        <path class="custom-line-fill" d="M 645.59 600 L 658.59 593.5 L 655.34 600 L 658.59 606.5 Z"
              stroke-width="5" stroke-miterlimit="10" pointer-events="all"/>
    </g>
    <!-- BOXES -->
    <g>
        <rect class="custom-box-fill" x="80.27" y="240" width="200" height="60" rx="9" ry="9"
              stroke="none" pointer-events="all"/>
        <text class="custom-box-text" x="180" y="277" font-family="Helvetica"
              font-size="24px" text-anchor="middle">Clientes
        </text>
    </g>
    <g>
        <rect class="custom-box-fill" x="80.27" y="640" width="200" height="60" rx="9" ry="9" stroke="none"
              pointer-events="all"/>
        <text class="custom-box-text" x="180" y="677" font-family="Helvetica" font-size="24px"
              text-anchor="middle">
            Plataformas...
        </text>
    </g>
    <g>
        <rect class="custom-box-fill" x="440" y="640" width="200" height="60" rx="9" ry="9" stroke="none"
              pointer-events="all"/>
        <text class="custom-box-text" x="540" y="677" font-family="Helvetica" font-size="24px"
              text-anchor="middle">BeeHappy
        </text>
    </g>
    <g>
        <rect class="custom-box-fill" x="800" y="440" width="200" height="60" rx="9" ry="9" stroke="none"
              pointer-events="all"/>
        <text class="custom-box-text" x="900" y="477" font-family="Helvetica"
              font-size="24px" text-anchor="middle">Bases de...
        </text>
    </g>
    <g>
        <rect class="custom-box-fill" x="800" y="840" width="200" height="60" rx="9" ry="9" stroke="none"
              pointer-events="all"/>
        <text class="custom-box-text" x="900" y="877" font-family="Helvetica"
              font-size="24px" text-anchor="middle">Bases de...
        </text>
    </g>
</svg>